<svg viewBox="0 0 32 32" width="32" height="32" xmlns="http://www.w3.org/2000/svg">
              <path
                d="M16 2C8.27 2 2 8.27 2 16s6.27 14 14 14 14-6.27 14-14S23.73 2 16 2zm5.2 7.3c-.15.75-.55 1.35-1.1 1.8-.7.55-1.6.8-2.45.9l-.75-1.65c.55-.05 1.1-.15 1.55-.4.4-.25.65-.6.65-1.05 0-.3-.15-.55-.4-.7-.35-.2-.75-.15-1.15-.05-.45.15-.85.35-1.25.6l-1.35.9c-.5.35-1.05.65-1.65.8-.7.15-1.45.1-2.05-.3-.6-.4-.95-1.1-.95-1.8 0-1.3.9-2.4 2-2.95.8-.4 1.7-.5 2.55-.4l.3 1.7c-.55-.05-1.1 0-1.6.25-.35.2-.65.5-.65.9 0 .25.15.5.35.65.3.2.7.2 1.05.1.4-.1.75-.3 1.1-.55l1.35-.9c.55-.4 1.2-.7 1.85-.85.75-.15 1.6-.1 2.25.35.55.35.9 1 .9 1.65 0 .15 0 .3-.05.45z"
                fill="white" />
            </svg>